<svg id="svg" version="1.1" xmlns="http://www.w3.org/2000/svg" xmlns:xlink="http://www.w3.org/1999/xlink" width="400" height="400" viewBox="0, 0, 400,400"><g id="svgg"><path id="path0" d="M188.200 56.811 C 183.133 57.787,179.352 58.739,177.740 59.447 C 177.046 59.751,176.304 60.000,176.090 60.000 C 175.877 60.000,174.824 60.375,173.751 60.833 C 172.678 61.291,171.170 61.929,170.400 62.252 C 169.630 62.574,168.730 63.010,168.400 63.220 C 168.070 63.430,167.406 63.773,166.925 63.981 C 156.387 68.554,140.554 84.387,135.981 94.925 C 135.773 95.406,135.430 96.070,135.220 96.400 C 135.010 96.730,134.574 97.630,134.252 98.400 C 133.929 99.170,133.291 100.678,132.833 101.751 C 132.375 102.824,132.000 103.877,132.000 104.090 C 132.000 104.304,131.743 105.046,131.430 105.740 C 130.667 107.426,129.445 112.876,128.373 119.373 C 127.742 123.199,128.113 141.565,128.948 147.800 C 129.805 154.207,130.718 159.799,131.264 162.000 C 131.510 162.990,131.844 164.610,132.006 165.600 C 132.169 166.590,132.673 168.750,133.128 170.400 C 133.583 172.050,134.157 174.210,134.405 175.200 C 134.652 176.190,135.020 177.309,135.222 177.686 C 135.424 178.064,135.757 179.054,135.961 179.886 C 136.429 181.794,138.721 188.071,140.385 192.000 C 141.083 193.650,141.921 195.630,142.246 196.400 C 142.572 197.170,142.996 198.070,143.188 198.400 C 143.381 198.730,144.296 200.523,145.222 202.385 C 149.780 211.545,157.677 223.458,162.843 228.969 C 164.108 230.319,164.296 231.779,163.568 234.600 C 163.340 235.480,162.982 236.920,162.772 237.800 C 161.533 242.986,157.352 248.756,151.470 253.400 C 150.634 254.060,149.736 254.782,149.475 255.005 C 149.043 255.373,144.947 257.953,143.000 259.084 C 142.009 259.659,133.438 263.897,131.800 264.621 C 127.678 266.444,126.804 266.800,126.454 266.800 C 126.240 266.800,125.555 267.056,124.932 267.368 C 124.310 267.681,122.990 268.252,122.000 268.639 C 121.010 269.025,119.445 269.670,118.522 270.071 C 117.599 270.472,116.669 270.800,116.454 270.800 C 116.240 270.800,115.555 271.064,114.932 271.387 C 114.310 271.710,112.585 272.430,111.100 272.987 C 104.288 275.542,102.922 276.072,101.800 276.594 C 100.379 277.254,97.552 278.465,95.613 279.243 C 93.112 280.247,82.688 285.619,80.905 286.822 C 79.945 287.470,79.062 288.000,78.943 288.000 C 78.824 288.000,78.314 288.315,77.809 288.700 C 77.305 289.085,76.487 289.670,75.991 290.000 C 68.039 295.290,61.254 303.582,58.315 311.600 C 56.455 316.675,56.248 318.291,56.091 328.944 C 55.922 340.476,55.992 340.893,58.409 342.807 L 59.915 344.000 200.168 344.000 L 340.421 344.000 342.211 342.211 L 344.000 340.421 344.000 330.137 C 344.000 319.559,343.916 318.794,342.099 312.800 C 341.357 310.353,339.955 307.226,338.781 305.400 C 338.356 304.740,337.884 303.930,337.731 303.600 C 336.125 300.134,324.752 289.438,321.228 288.080 C 320.913 287.958,319.743 287.258,318.628 286.523 C 316.378 285.041,305.037 279.378,301.600 278.021 C 300.390 277.543,298.860 276.910,298.200 276.613 C 297.540 276.316,296.190 275.755,295.200 275.366 C 294.210 274.977,292.645 274.330,291.722 273.929 C 290.799 273.528,289.875 273.200,289.668 273.200 C 289.461 273.200,288.776 272.931,288.146 272.602 C 287.516 272.274,286.719 272.004,286.376 272.002 C 286.034 272.001,285.404 271.736,284.976 271.413 C 284.549 271.090,283.965 270.820,283.678 270.813 C 283.391 270.806,282.401 270.472,281.478 270.071 C 280.555 269.670,278.990 269.025,278.000 268.639 C 277.010 268.252,275.690 267.681,275.068 267.368 C 274.445 267.056,273.760 266.800,273.546 266.800 C 273.195 266.800,271.760 266.213,268.200 264.612 C 266.741 263.956,258.063 259.642,256.466 258.780 C 254.825 257.893,251.141 255.519,250.200 254.742 C 249.760 254.379,248.260 253.144,246.867 251.999 C 238.764 245.335,233.852 232.931,237.601 228.599 C 241.419 224.188,248.137 214.717,250.402 210.554 C 250.867 209.699,251.863 207.920,252.615 206.600 C 254.326 203.599,258.102 195.839,259.427 192.600 C 259.697 191.940,260.323 190.410,260.817 189.200 C 261.312 187.990,261.961 186.433,262.259 185.740 C 262.556 185.046,262.800 184.179,262.800 183.813 C 262.800 183.447,263.020 182.754,263.289 182.274 C 263.558 181.793,263.985 180.680,264.239 179.800 C 264.827 177.764,266.662 171.210,267.376 168.600 C 268.364 164.989,269.786 157.411,270.416 152.400 C 270.652 150.530,271.036 147.830,271.271 146.400 C 272.087 141.429,272.174 121.558,271.399 117.437 C 270.004 110.028,269.388 107.464,268.586 105.740 C 268.264 105.046,267.994 104.146,267.987 103.740 C 267.980 103.333,267.710 102.651,267.387 102.224 C 267.064 101.796,266.800 101.222,266.800 100.947 C 266.800 100.473,264.109 94.718,263.084 93.000 C 261.494 90.333,258.103 85.214,257.229 84.160 C 256.663 83.478,255.609 82.186,254.886 81.288 C 252.466 78.283,247.302 73.292,244.654 71.400 C 244.039 70.960,243.153 70.277,242.685 69.882 C 242.218 69.487,241.198 68.776,240.418 68.303 C 239.638 67.830,238.910 67.327,238.800 67.186 C 238.343 66.600,232.554 63.539,229.000 62.005 C 227.900 61.531,226.433 60.885,225.740 60.571 C 225.046 60.257,224.264 60.000,224.000 60.000 C 223.736 60.000,222.954 59.751,222.260 59.447 C 220.961 58.877,218.022 58.100,212.800 56.947 C 208.013 55.890,193.405 55.809,188.200 56.811 " stroke="none" fill="#acacac" fill-rule="evenodd"></path><path id="path1" d="M0.000 200.000 L 0.000 400.000 200.000 400.000 L 400.000 400.000 400.000 200.000 L 400.000 0.000 200.000 0.000 L 0.000 0.000 0.000 200.000 M212.800 56.947 C 218.022 58.100,220.961 58.877,222.260 59.447 C 222.954 59.751,223.736 60.000,224.000 60.000 C 224.264 60.000,225.046 60.257,225.740 60.571 C 226.433 60.885,227.900 61.531,229.000 62.005 C 232.554 63.539,238.343 66.600,238.800 67.186 C 238.910 67.327,239.638 67.830,240.418 68.303 C 241.198 68.776,242.218 69.487,242.685 69.882 C 243.153 70.277,244.039 70.960,244.654 71.400 C 247.302 73.292,252.466 78.283,254.886 81.288 C 255.609 82.186,256.663 83.478,257.229 84.160 C 258.103 85.214,261.494 90.333,263.084 93.000 C 264.109 94.718,266.800 100.473,266.800 100.947 C 266.800 101.222,267.064 101.796,267.387 102.224 C 267.710 102.651,267.980 103.333,267.987 103.740 C 267.994 104.146,268.264 105.046,268.586 105.740 C 269.388 107.464,270.004 110.028,271.399 117.437 C 272.174 121.558,272.087 141.429,271.271 146.400 C 271.036 147.830,270.652 150.530,270.416 152.400 C 269.786 157.411,268.364 164.989,267.376 168.600 C 266.662 171.210,264.827 177.764,264.239 179.800 C 263.985 180.680,263.558 181.793,263.289 182.274 C 263.020 182.754,262.800 183.447,262.800 183.813 C 262.800 184.179,262.556 185.046,262.259 185.740 C 261.961 186.433,261.312 187.990,260.817 189.200 C 260.323 190.410,259.697 191.940,259.427 192.600 C 258.102 195.839,254.326 203.599,252.615 206.600 C 251.863 207.920,250.867 209.699,250.402 210.554 C 248.137 214.717,241.419 224.188,237.601 228.599 C 233.852 232.931,238.764 245.335,246.867 251.999 C 248.260 253.144,249.760 254.379,250.200 254.742 C 251.141 255.519,254.825 257.893,256.466 258.780 C 258.063 259.642,266.741 263.956,268.200 264.612 C 271.760 266.213,273.195 266.800,273.546 266.800 C 273.760 266.800,274.445 267.056,275.068 267.368 C 275.690 267.681,277.010 268.252,278.000 268.639 C 278.990 269.025,280.555 269.670,281.478 270.071 C 282.401 270.472,283.391 270.806,283.678 270.813 C 283.965 270.820,284.549 271.090,284.976 271.413 C 285.404 271.736,286.034 272.001,286.376 272.002 C 286.719 272.004,287.516 272.274,288.146 272.602 C 288.776 272.931,289.461 273.200,289.668 273.200 C 289.875 273.200,290.799 273.528,291.722 273.929 C 292.645 274.330,294.210 274.977,295.200 275.366 C 296.190 275.755,297.540 276.316,298.200 276.613 C 298.860 276.910,300.390 277.543,301.600 278.021 C 305.037 279.378,316.378 285.041,318.628 286.523 C 319.743 287.258,320.913 287.958,321.228 288.080 C 324.752 289.438,336.125 300.134,337.731 303.600 C 337.884 303.930,338.356 304.740,338.781 305.400 C 339.955 307.226,341.357 310.353,342.099 312.800 C 343.916 318.794,344.000 319.559,344.000 330.137 L 344.000 340.421 342.211 342.211 L 340.421 344.000 200.168 344.000 L 59.915 344.000 58.409 342.807 C 55.992 340.893,55.922 340.476,56.091 328.944 C 56.248 318.291,56.455 316.675,58.315 311.600 C 61.254 303.582,68.039 295.290,75.991 290.000 C 76.487 289.670,77.305 289.085,77.809 288.700 C 78.314 288.315,78.824 288.000,78.943 288.000 C 79.062 288.000,79.945 287.470,80.905 286.822 C 82.688 285.619,93.112 280.247,95.613 279.243 C 97.552 278.465,100.379 277.254,101.800 276.594 C 102.922 276.072,104.288 275.542,111.100 272.987 C 112.585 272.430,114.310 271.710,114.932 271.387 C 115.555 271.064,116.240 270.800,116.454 270.800 C 116.669 270.800,117.599 270.472,118.522 270.071 C 119.445 269.670,121.010 269.025,122.000 268.639 C 122.990 268.252,124.310 267.681,124.932 267.368 C 125.555 267.056,126.240 266.800,126.454 266.800 C 126.804 266.800,127.678 266.444,131.800 264.621 C 133.438 263.897,142.009 259.659,143.000 259.084 C 144.947 257.953,149.043 255.373,149.475 255.005 C 149.736 254.782,150.634 254.060,151.470 253.400 C 157.352 248.756,161.533 242.986,162.772 237.800 C 162.982 236.920,163.340 235.480,163.568 234.600 C 164.296 231.779,164.108 230.319,162.843 228.969 C 157.677 223.458,149.780 211.545,145.222 202.385 C 144.296 200.523,143.381 198.730,143.188 198.400 C 142.996 198.070,142.572 197.170,142.246 196.400 C 141.921 195.630,141.083 193.650,140.385 192.000 C 138.721 188.071,136.429 181.794,135.961 179.886 C 135.757 179.054,135.424 178.064,135.222 177.686 C 135.020 177.309,134.652 176.190,134.405 175.200 C 134.157 174.210,133.583 172.050,133.128 170.400 C 132.673 168.750,132.169 166.590,132.006 165.600 C 131.844 164.610,131.510 162.990,131.264 162.000 C 130.718 159.799,129.805 154.207,128.948 147.800 C 128.113 141.565,127.742 123.199,128.373 119.373 C 129.445 112.876,130.667 107.426,131.430 105.740 C 131.743 105.046,132.000 104.304,132.000 104.090 C 132.000 103.877,132.375 102.824,132.833 101.751 C 133.291 100.678,133.929 99.170,134.252 98.400 C 134.574 97.630,135.010 96.730,135.220 96.400 C 135.430 96.070,135.773 95.406,135.981 94.925 C 140.554 84.387,156.387 68.554,166.925 63.981 C 167.406 63.773,168.070 63.430,168.400 63.220 C 168.730 63.010,169.630 62.574,170.400 62.252 C 171.170 61.929,172.678 61.291,173.751 60.833 C 174.824 60.375,175.877 60.000,176.090 60.000 C 176.304 60.000,177.046 59.751,177.740 59.447 C 184.802 56.348,203.917 54.985,212.800 56.947 " stroke="none" fill="#f4f4f4" fill-rule="evenodd"></path></g></svg>