<svg id="svg" version="1.1" xmlns="http://www.w3.org/2000/svg" xmlns:xlink="http://www.w3.org/1999/xlink" width="400" height="400" viewBox="0, 0, 400,400"><g id="svgg"><path id="path0" d="M181.689 21.078 C 107.885 34.462,77.986 127.776,130.151 181.925 L 139.844 191.986 128.477 196.691 C 56.714 226.396,-0.439 318.890,26.612 361.545 C 38.871 380.876,42.374 381.418,151.866 380.897 L 241.937 380.469 245.969 376.681 C 251.044 371.912,251.563 361.653,247.014 356.032 L 244.028 352.344 151.083 351.563 C 48.274 350.698,53.785 351.283,49.782 340.812 C 46.751 332.885,58.679 300.748,71.959 281.060 C 112.623 220.773,187.159 197.129,255.685 222.780 C 277.701 231.021,286.719 228.348,286.719 213.581 C 286.719 204.566,283.952 201.579,270.676 196.262 L 260.156 192.048 269.849 181.956 C 334.252 114.897,273.695 4.392,181.689 21.078 M222.721 53.283 C 268.130 70.273,280.877 127.657,246.907 162.167 C 215.094 194.486,160.675 185.543,140.597 144.697 C 114.455 91.515,167.397 32.584,222.721 53.283 M306.808 246.862 C 299.590 249.775,298.438 253.912,298.438 276.910 L 298.438 298.438 276.773 298.438 C 252.226 298.438,247.882 300.075,246.014 310.034 C 243.387 324.034,250.672 328.125,278.227 328.125 L 298.438 328.125 298.438 350.071 C 298.438 374.196,299.899 378.034,310.052 380.582 C 323.252 383.895,328.125 375.248,328.125 348.515 L 328.125 328.125 348.515 328.125 C 375.248 328.125,383.895 323.252,380.582 310.052 C 378.034 299.899,374.196 298.438,350.071 298.438 L 328.125 298.438 328.125 278.227 C 328.125 249.305,322.233 240.637,306.808 246.862 " stroke="none" fill="#000000" fill-rule="evenodd"></path></g></svg>