<svg id="svg" version="1.1" width="512" height="512" xmlns="http://www.w3.org/2000/svg"><path d="M143.338 197.198 C 136.007 204.456,129.732 211.268,129.394 212.334 C 128.898 213.896,140.988 226.483,191.636 277.136 C 226.208 311.711,255.172 340.000,256.000 340.000 C 257.909 340.000,383.000 214.988,383.000 213.080 C 383.000 211.283,357.260 185.217,354.674 184.397 C 353.127 183.905,343.293 193.227,305.098 231.392 C 278.892 257.576,256.798 279.000,256.000 279.000 C 255.202 279.000,233.156 257.625,207.010 231.500 C 180.864 205.375,158.841 184.000,158.069 184.000 C 157.297 184.000,150.668 189.939,143.338 197.198 " stroke="none" fill="undefined" fill-rule="evenodd"/></svg>