<svg id="svg" version="1.1" xmlns="http://www.w3.org/2000/svg" xmlns:xlink="http://www.w3.org/1999/xlink" width="400" height="400" viewBox="0, 0, 400,400"><g id="svgg"><path id="path0" d="M54.742 3.022 C 52.490 7.231,52.490 392.769,54.742 396.978 C 56.324 399.932,59.586 400.000,200.000 400.000 C 340.414 400.000,343.676 399.932,345.258 396.978 C 346.342 394.951,346.875 341.081,346.875 233.382 L 346.875 72.809 310.591 36.404 L 274.307 0.000 165.333 0.000 C 59.194 0.000,56.318 0.079,54.742 3.022 M260.938 49.945 C 260.938 89.776,256.949 85.937,298.335 85.937 L 329.688 85.938 329.688 234.375 L 329.688 382.813 200.000 382.813 L 70.313 382.813 70.313 200.000 L 70.313 17.188 165.625 17.188 L 260.938 17.188 260.938 49.945 M297.656 50.000 L 316.357 68.750 297.241 68.750 L 278.125 68.750 278.125 50.000 C 278.125 39.688,278.312 31.250,278.540 31.250 C 278.768 31.250,287.371 39.688,297.656 50.000 M97.768 121.205 C 92.201 126.772,94.556 130.940,122.860 165.625 C 137.937 184.102,151.325 200.766,152.609 202.657 C 154.849 205.954,153.726 207.593,125.129 242.770 C 83.536 293.932,83.123 292.188,136.840 292.188 L 174.617 292.187 186.678 277.344 C 193.312 269.180,199.307 262.500,200.000 262.500 C 200.693 262.500,206.688 269.180,213.322 277.344 L 225.383 292.188 262.013 292.188 C 316.779 292.187,316.348 293.840,274.891 242.753 C 246.407 207.653,245.196 205.885,247.410 202.627 C 248.684 200.752,262.063 184.102,277.140 165.625 C 316.061 117.931,316.306 118.750,263.082 118.750 L 226.386 118.750 221.728 123.828 C 219.165 126.621,213.404 133.625,208.925 139.392 C 204.446 145.159,200.430 149.877,200.000 149.877 C 199.570 149.877,195.554 145.159,191.075 139.392 C 186.596 133.625,180.835 126.621,178.272 123.828 L 173.614 118.750 136.918 118.750 C 105.642 118.750,99.861 119.113,97.768 121.205 M220.502 204.164 C 250.905 241.688,276.016 272.977,276.302 273.695 C 276.589 274.413,267.340 275.000,255.749 275.000 L 234.676 275.000 178.317 205.469 L 121.959 135.938 143.590 135.938 L 165.222 135.938 220.502 204.164 M257.587 161.328 C 246.291 175.293,236.169 187.675,235.093 188.845 C 233.341 190.749,215.037 171.580,212.758 165.454 C 212.470 164.681,217.279 157.723,223.443 149.993 L 234.652 135.938 256.388 135.938 L 278.125 135.938 257.587 161.328 M177.437 233.040 C 189.548 247.679,189.780 245.216,174.552 263.672 L 165.205 275.000 144.191 275.000 C 132.633 275.000,123.411 274.414,123.698 273.697 C 124.197 272.450,166.140 220.333,166.657 220.319 C 166.794 220.316,171.646 226.040,177.437 233.040 M86.976 357.529 C 83.703 361.145,83.641 366.230,86.830 369.420 C 88.987 371.576,97.535 371.875,157.107 371.875 L 224.928 371.875 227.605 367.789 C 230.007 364.123,230.045 363.279,227.972 359.586 L 225.662 355.469 157.619 355.062 C 93.254 354.677,89.436 354.810,86.976 357.529 M246.205 357.143 C 239.014 364.334,245.215 372.210,257.554 371.557 C 268.624 370.971,272.882 365.873,268.230 358.774 C 264.981 353.814,250.599 352.749,246.205 357.143 " stroke="none" fill="#000000" fill-rule="evenodd"></path></g></svg>