<svg id="svg" version="1.1" xmlns="http://www.w3.org/2000/svg" xmlns:xlink="http://www.w3.org/1999/xlink" width="400" height="400" viewBox="0, 0, 400,400"><g id="svgg"><path id="path0" d="M90.528 20.341 C 59.818 25.104,34.477 46.867,23.175 78.185 L 19.531 88.281 19.531 200.000 L 19.531 311.719 23.175 321.815 C 32.797 348.478,50.924 366.801,77.184 376.409 L 88.281 380.469 146.094 380.469 C 218.870 380.469,230.076 377.562,252.210 352.944 C 279.344 322.765,283.885 267.187,259.217 267.188 C 248.733 267.188,245.313 272.086,245.313 287.101 C 245.312 319.021,229.207 342.324,202.406 349.180 C 188.936 352.626,104.814 352.626,91.344 349.180 C 72.072 344.250,55.750 327.928,50.820 308.656 C 47.270 294.780,47.270 105.220,50.820 91.344 C 55.750 72.072,72.072 55.750,91.344 50.820 C 104.814 47.374,188.936 47.374,202.406 50.820 C 229.207 57.676,245.313 80.979,245.313 112.899 C 245.313 127.914,248.733 132.813,259.217 132.813 C 271.576 132.812,274.232 128.316,274.141 107.548 C 273.957 66.027,251.754 34.610,214.063 22.540 C 204.354 19.431,107.511 17.708,90.528 20.341 M315.745 138.420 C 305.266 147.238,307.844 154.068,329.550 175.000 C 357.242 201.703,357.208 199.356,330.295 226.697 C 308.870 248.463,306.628 253.475,314.082 262.951 C 322.269 273.360,328.591 270.698,353.537 246.338 C 390.674 210.073,390.928 193.826,354.927 157.313 C 330.714 132.755,325.478 130.230,315.745 138.420 M148.477 189.023 C 142.477 195.023,142.477 204.977,148.477 210.977 C 151.472 213.972,154.002 214.063,234.446 214.063 L 317.330 214.062 321.165 210.227 C 326.494 204.898,326.494 195.102,321.165 189.773 L 317.330 185.938 234.446 185.938 C 154.002 185.938,151.472 186.028,148.477 189.023 " stroke="none" fill="#000000" fill-rule="evenodd"></path></g></svg>